<?xml version="1.0" standalone="no"?><svg xmlns="http://www.w3.org/2000/svg" viewBox="0 0 1440 320"><path fill="#0099ff" fill-opacity="1" d="M0,64L24,58.7C48,53,96,43,144,64C192,85,240,139,288,165.3C336,192,384,192,432,176C480,160,528,128,576,112C624,96,672,96,720,90.7C768,85,816,75,864,112C912,149,960,235,1008,229.3C1056,224,1104,128,1152,96C1200,64,1248,96,1296,117.3C1344,139,1392,149,1416,154.7L1440,160L1440,0L1416,0C1392,0,1344,0,1296,0C1248,0,1200,0,1152,0C1104,0,1056,0,1008,0C960,0,912,0,864,0C816,0,768,0,720,0C672,0,624,0,576,0C528,0,480,0,432,0C384,0,336,0,288,0C240,0,192,0,144,0C96,0,48,0,24,0L0,0Z"></path></svg>