<?xml version="1.0" standalone="no"?><svg xmlns="http://www.w3.org/2000/svg" viewBox="0 0 1440 320"><path fill="#0099ff" fill-opacity="1" d="M0,224L18.5,229.3C36.9,235,74,245,111,218.7C147.7,192,185,128,222,96C258.5,64,295,64,332,58.7C369.2,53,406,43,443,48C480,53,517,75,554,85.3C590.8,96,628,96,665,90.7C701.5,85,738,75,775,101.3C812.3,128,849,192,886,202.7C923.1,213,960,171,997,170.7C1033.8,171,1071,213,1108,197.3C1144.6,181,1182,107,1218,106.7C1255.4,107,1292,181,1329,202.7C1366.2,224,1403,192,1422,176L1440,160L1440,320L1421.5,320C1403.1,320,1366,320,1329,320C1292.3,320,1255,320,1218,320C1181.5,320,1145,320,1108,320C1070.8,320,1034,320,997,320C960,320,923,320,886,320C849.2,320,812,320,775,320C738.5,320,702,320,665,320C627.7,320,591,320,554,320C516.9,320,480,320,443,320C406.2,320,369,320,332,320C295.4,320,258,320,222,320C184.6,320,148,320,111,320C73.8,320,37,320,18,320L0,320Z"></path></svg>